<svg id="Capa_1" enable-background="new 0 0 512 512" height="512" viewBox="0 0 512 512" width="512" xmlns="http://www.w3.org/2000/svg"><g><path d="m511.677 445.313-116.223-116.21v-329.103h-316.014l-79.117 79.117v432.883h395.131v-50.418l49.975 49.969zm-66.249 23.814-17.778-17.776 23.817-23.817 17.781 17.778zm-101.826-101.814 23.819-23.814 62.832 62.824-23.817 23.817zm-255.989-333.06v53.037h-53.037zm277.841 447.747h-335.131v-364.71h87.29v-87.29h247.841v273.042l-20.528 20.524-31.251-31.247c14.883-19.355 23.746-43.568 23.746-69.815 0-63.277-51.479-114.758-114.757-114.758s-114.757 51.48-114.757 114.758 51.479 114.757 114.757 114.757c26.238 0 50.443-8.858 69.795-23.731l31.252 31.248-22.539 22.535 64.281 64.273v50.414zm-142.789-174.739c-46.735 0-84.757-38.021-84.757-84.757s38.021-84.758 84.757-84.758 84.757 38.022 84.757 84.758-38.022 84.757-84.757 84.757z"/></g></svg>